<svg width="82" height="82" viewBox="0 0 82 82" fill="none" xmlns="http://www.w3.org/2000/svg">
<circle cx="41" cy="41" r="41" fill="white"/>
<path d="M40.0112 35.0337V38H27.731V35.4854L33.4683 29.4062C34.0054 28.7878 34.4326 28.2425 34.75 27.7705C35.0755 27.2985 35.3115 26.8713 35.458 26.4888C35.6045 26.0981 35.6777 25.7401 35.6777 25.4146C35.6777 24.8856 35.5923 24.438 35.4214 24.0718C35.2586 23.7056 35.0186 23.4248 34.7012 23.2295C34.3838 23.0342 33.9972 22.9365 33.5415 22.9365C33.0532 22.9365 32.6341 23.0627 32.2842 23.3149C31.9342 23.5672 31.6657 23.9172 31.4785 24.3647C31.2913 24.8042 31.1978 25.3047 31.1978 25.8662H27.3647C27.3647 24.7839 27.6252 23.7992 28.146 22.9121C28.6668 22.0169 29.3952 21.3049 30.3311 20.7759C31.2669 20.2388 32.3615 19.9702 33.6147 19.9702C34.9006 19.9702 35.9788 20.1737 36.8496 20.5806C37.7204 20.9875 38.3796 21.5693 38.8271 22.3262C39.2747 23.083 39.4985 23.9945 39.4985 25.0605C39.4985 25.6628 39.4009 26.2446 39.2056 26.8062C39.0184 27.3677 38.7458 27.9251 38.3877 28.4785C38.0296 29.0319 37.5983 29.5975 37.0938 30.1753C36.5892 30.745 36.0195 31.3472 35.3848 31.9819L32.6992 35.0337H40.0112ZM45.5654 29.9922L42.5381 29.272L43.5757 20.2266H53.7563V23.2417H46.7007L46.2734 26.9893C46.4932 26.859 46.839 26.7166 47.311 26.562C47.783 26.3993 48.312 26.3179 48.8979 26.3179C49.7687 26.3179 50.5418 26.4521 51.2173 26.7207C51.8927 26.9893 52.4624 27.3799 52.9263 27.8926C53.3983 28.3971 53.7523 29.0197 53.9883 29.7603C54.2324 30.5008 54.3545 31.3431 54.3545 32.2871C54.3545 33.0684 54.2324 33.8171 53.9883 34.5332C53.7441 35.2412 53.3698 35.876 52.8652 36.4375C52.3688 36.9909 51.7381 37.4303 50.9731 37.7559C50.2082 38.0814 49.3089 38.2441 48.2754 38.2441C47.4941 38.2441 46.7373 38.1261 46.0049 37.8901C45.2725 37.6541 44.6133 37.3123 44.0273 36.8647C43.4495 36.409 42.9897 35.8556 42.6479 35.2046C42.3143 34.5535 42.1434 33.8211 42.1353 33.0073H45.9438C45.9845 33.4793 46.1025 33.8862 46.2979 34.228C46.4932 34.5617 46.7576 34.8221 47.0913 35.0093C47.425 35.1883 47.8115 35.2778 48.251 35.2778C48.6742 35.2778 49.0322 35.1965 49.3252 35.0337C49.6182 34.8628 49.8501 34.6309 50.021 34.3379C50.2 34.0449 50.3302 33.7031 50.4116 33.3125C50.493 32.9219 50.5337 32.5028 50.5337 32.0552C50.5337 31.5913 50.4808 31.1763 50.375 30.8101C50.2692 30.4357 50.1064 30.1183 49.8867 29.8579C49.667 29.5894 49.3862 29.3859 49.0444 29.2476C48.7108 29.1011 48.3079 29.0278 47.8359 29.0278C47.2174 29.0278 46.7332 29.1296 46.3833 29.333C46.0334 29.5365 45.7607 29.7562 45.5654 29.9922ZM36.1855 46.7812V61H33.0117L27.6406 51.8105V61H24.457V46.7812H27.6406L33.0215 55.9707V46.7812H36.1855ZM37.9434 55.8242V55.6191C37.9434 54.8444 38.054 54.1315 38.2754 53.4805C38.4967 52.8229 38.8223 52.2533 39.252 51.7715C39.6816 51.2897 40.209 50.9154 40.834 50.6484C41.459 50.375 42.1751 50.2383 42.9824 50.2383C43.8027 50.2383 44.5254 50.375 45.1504 50.6484C45.7819 50.9154 46.3125 51.2897 46.7422 51.7715C47.1719 52.2533 47.4974 52.8229 47.7188 53.4805C47.9401 54.1315 48.0508 54.8444 48.0508 55.6191V55.8242C48.0508 56.5924 47.9401 57.3053 47.7188 57.9629C47.4974 58.6139 47.1719 59.1836 46.7422 59.6719C46.3125 60.1536 45.7852 60.528 45.1602 60.7949C44.5352 61.0618 43.8158 61.1953 43.002 61.1953C42.1947 61.1953 41.4753 61.0618 40.8438 60.7949C40.2122 60.528 39.6816 60.1536 39.252 59.6719C38.8223 59.1836 38.4967 58.6139 38.2754 57.9629C38.054 57.3053 37.9434 56.5924 37.9434 55.8242ZM41 55.6191V55.8242C41 56.2409 41.0326 56.6315 41.0977 56.9961C41.1693 57.3607 41.2832 57.6797 41.4395 57.9531C41.5957 58.2266 41.8008 58.4414 42.0547 58.5977C42.3151 58.7474 42.6309 58.8223 43.002 58.8223C43.373 58.8223 43.6855 58.7474 43.9395 58.5977C44.1934 58.4414 44.3984 58.2266 44.5547 57.9531C44.7109 57.6797 44.8216 57.3607 44.8867 56.9961C44.9583 56.6315 44.9941 56.2409 44.9941 55.8242V55.6191C44.9941 55.209 44.9583 54.8249 44.8867 54.4668C44.8216 54.1022 44.7109 53.7799 44.5547 53.5C44.3984 53.2201 44.1901 53.002 43.9297 52.8457C43.6758 52.6895 43.36 52.6113 42.9824 52.6113C42.6178 52.6113 42.3086 52.6895 42.0547 52.8457C41.8008 53.002 41.5957 53.2201 41.4395 53.5C41.2832 53.7799 41.1693 54.1022 41.0977 54.4668C41.0326 54.8249 41 55.209 41 55.6191ZM53.1973 58.8418L55.4043 50.4336H58.6074L55.1016 61H53.1777L53.1973 58.8418ZM51.7715 50.4336L53.9688 58.8516L53.9883 61H52.0645L48.5586 50.4336H51.7715Z" fill="#274C5B"/>
</svg>
